<svg width="154" height="29" viewBox="0 0 154 29" fill="none" xmlns="http://www.w3.org/2000/svg">
<path d="M11.1125 28.532C8.40179 28.532 6.13446 27.9493 4.31046 26.784C2.51179 25.5933 1.23246 23.9846 0.472458 21.958L5.71646 18.918C6.78046 21.3753 8.64246 22.604 11.3025 22.604C13.7091 22.604 14.9125 21.882 14.9125 20.438C14.9125 19.6526 14.5198 19.0446 13.7345 18.614C12.9745 18.158 11.5305 17.6386 9.40246 17.056C8.28779 16.752 7.31246 16.41 6.47646 16.03C5.64046 15.65 4.81712 15.156 4.00646 14.548C3.22112 13.9146 2.61312 13.1293 2.18246 12.192C1.77712 11.2546 1.57446 10.178 1.57446 8.96198C1.57446 6.50465 2.44846 4.54131 4.19646 3.07198C5.96979 1.60265 8.07246 0.867981 10.5045 0.867981C12.6831 0.867981 14.6085 1.38731 16.2805 2.42598C17.9525 3.43932 19.2698 4.92131 20.2325 6.87198L15.1025 9.87398C14.6211 8.86065 14.0258 8.10065 13.3165 7.59398C12.6071 7.06198 11.6698 6.79598 10.5045 6.79598C9.59246 6.79598 8.88313 6.99865 8.37646 7.40398C7.89513 7.78398 7.65446 8.25265 7.65446 8.80998C7.65446 9.46865 7.95846 10.0386 8.56646 10.52C9.19979 11.0013 10.4918 11.5333 12.4425 12.116C13.5065 12.4453 14.3298 12.7113 14.9125 12.914C15.4951 13.1166 16.2298 13.4586 17.1165 13.94C18.0285 14.396 18.7125 14.89 19.1685 15.422C19.6498 15.9286 20.0678 16.6126 20.4225 17.474C20.8025 18.31 20.9925 19.2726 20.9925 20.362C20.9925 22.8953 20.0805 24.8966 18.2565 26.366C16.4325 27.81 14.0511 28.532 11.1125 28.532Z" fill="#14161B"/>
<path d="M34.4254 22.148H45.0654V28H28.3454V1.39998H44.8754V7.25198H34.4254V11.66H43.9254V17.436H34.4254V22.148Z" fill="#14161B"/>
<path d="M75.3063 24.542C72.6209 27.202 69.3529 28.532 65.5023 28.532C61.6516 28.532 58.3836 27.202 55.6983 24.542C53.0129 21.882 51.6703 18.6013 51.6703 14.7C51.6703 10.7986 53.0129 7.51798 55.6983 4.85798C58.3836 2.19798 61.6516 0.867981 65.5023 0.867981C69.3529 0.867981 72.6209 2.19798 75.3063 4.85798C77.9916 7.51798 79.3343 10.7986 79.3343 14.7C79.3343 18.6013 77.9916 21.882 75.3063 24.542ZM59.9543 20.4C61.4489 21.8693 63.2983 22.604 65.5023 22.604C67.7063 22.604 69.5429 21.8693 71.0123 20.4C72.5069 18.9306 73.2543 17.0306 73.2543 14.7C73.2543 12.3693 72.5069 10.4693 71.0123 8.99998C69.5429 7.53065 67.7063 6.79598 65.5023 6.79598C63.2983 6.79598 61.4489 7.53065 59.9543 8.99998C58.4849 10.4693 57.7503 12.3693 57.7503 14.7C57.7503 17.0306 58.4849 18.9306 59.9543 20.4Z" fill="#14161B"/>
<path d="M100.86 8.89598C100.02 9.73598 98.992 10.156 97.776 10.156C96.56 10.156 95.528 9.73598 94.68 8.89598C93.84 8.04798 93.42 7.01598 93.42 5.79998C93.42 4.58398 93.84 3.55598 94.68 2.71598C95.528 1.86798 96.56 1.44398 97.776 1.44398C98.992 1.44398 100.02 1.86798 100.86 2.71598C101.708 3.55598 102.132 4.58398 102.132 5.79998C102.132 7.01598 101.708 8.04798 100.86 8.89598ZM95.652 7.95998C96.228 8.52798 96.936 8.81198 97.776 8.81198C98.616 8.81198 99.32 8.52798 99.888 7.95998C100.464 7.38398 100.752 6.66398 100.752 5.79998C100.752 4.93598 100.464 4.21998 99.888 3.65198C99.32 3.07598 98.616 2.78798 97.776 2.78798C96.936 2.78798 96.228 3.07598 95.652 3.65198C95.084 4.21998 94.8 4.93598 94.8 5.79998C94.8 6.66398 95.084 7.38398 95.652 7.95998Z" fill="#14161B"/>
<path d="M110.487 1.59998C111.279 1.59998 111.939 1.86398 112.467 2.39198C113.003 2.91998 113.271 3.57598 113.271 4.35998C113.271 5.13598 113.003 5.79198 112.467 6.32798C111.939 6.85598 111.279 7.11998 110.487 7.11998H108.771V9.99998H107.391V1.59998H110.487ZM110.487 5.82398C110.895 5.82398 111.231 5.68798 111.495 5.41598C111.759 5.13598 111.891 4.78398 111.891 4.35998C111.891 3.93598 111.759 3.58798 111.495 3.31598C111.231 3.03598 110.895 2.89598 110.487 2.89598H108.771V5.82398H110.487Z" fill="#14161B"/>
<path d="M123.753 1.59998V2.91998H121.389V9.99998H120.009V2.91998H117.633V1.59998H123.753Z" fill="#14161B"/>
<path d="M128.774 1.59998H130.154V9.99998H128.774V1.59998Z" fill="#14161B"/>
<path d="M143.872 1.59998V9.99998H142.492V4.01198L139.936 8.23598H139.768L137.212 3.99998V9.99998H135.832V1.59998H137.32L139.852 5.79998L142.396 1.59998H143.872Z" fill="#14161B"/>
<path d="M149.547 1.59998H150.927V9.99998H149.547V1.59998Z" fill="#14161B"/>
<path d="M95.172 23.68H99.036V25H93.456V23.86L97.224 17.92H93.54V16.6H98.94V17.74L95.172 23.68Z" fill="#14161B"/>
<path d="M109.71 25L109.122 23.308H105.546L104.958 25H103.458L106.506 16.6H108.162L111.198 25H109.71ZM106.002 22.012H108.666L107.334 18.22L106.002 22.012Z" fill="#14161B"/>
<path d="M120.964 16.6V17.92H118.6V25H117.22V17.92H114.844V16.6H120.964Z" fill="#14161B"/>
<path d="M125.985 16.6H127.365V25H125.985V16.6Z" fill="#14161B"/>
<path d="M140.063 23.896C139.223 24.736 138.195 25.156 136.979 25.156C135.763 25.156 134.731 24.736 133.883 23.896C133.043 23.048 132.623 22.016 132.623 20.8C132.623 19.584 133.043 18.556 133.883 17.716C134.731 16.868 135.763 16.444 136.979 16.444C138.195 16.444 139.223 16.868 140.063 17.716C140.911 18.556 141.335 19.584 141.335 20.8C141.335 22.016 140.911 23.048 140.063 23.896ZM134.855 22.96C135.431 23.528 136.139 23.812 136.979 23.812C137.819 23.812 138.523 23.528 139.091 22.96C139.667 22.384 139.955 21.664 139.955 20.8C139.955 19.936 139.667 19.22 139.091 18.652C138.523 18.076 137.819 17.788 136.979 17.788C136.139 17.788 135.431 18.076 134.855 18.652C134.287 19.22 134.003 19.936 134.003 20.8C134.003 21.664 134.287 22.384 134.855 22.96Z" fill="#14161B"/>
<path d="M151.634 16.6H153.014V25H151.934L147.974 19.3V25H146.594V16.6H147.674L151.634 22.3V16.6Z" fill="#14161B"/>
</svg>
