<svg width="190" height="44" viewBox="0 0 190 44" fill="none" xmlns="http://www.w3.org/2000/svg">
<path d="M110.197 17.0204H102.717V17.8163C105.057 17.8163 105.433 18.3192 105.433 21.2951V26.6599C105.433 29.6354 105.057 30.1803 102.717 30.1803C100.921 29.929 99.7091 28.9648 98.0378 27.1208L96.116 25.0255C98.7063 24.5638 100.085 22.9298 100.085 21.0854C100.085 18.7808 98.1215 17.0204 94.4443 17.0204H87.0906V17.8163C89.4301 17.8163 89.8062 18.3192 89.8062 21.2951V26.6599C89.8062 29.6354 89.4301 30.1803 87.0906 30.1803V30.9765H95.4052V30.1803C93.0658 30.1803 92.6896 29.6354 92.6896 26.6599V25.1515H93.3997L98.0378 30.9765H110.197C116.172 30.9765 118.762 27.7917 118.762 23.9773C118.762 20.1636 116.172 17.0204 110.197 17.0204ZM92.69 23.8513V18.2779H94.4028C96.2827 18.2779 97.1187 19.577 97.1187 21.0858C97.1187 22.5529 96.2827 23.8516 94.4028 23.8516H92.69V23.8513ZM110.322 29.6774H110.03C108.526 29.6774 108.317 29.3005 108.317 27.3724V18.2779C108.317 18.2779 110.155 18.2779 110.322 18.2779C114.668 18.2779 115.461 21.4627 115.461 23.9356C115.461 26.4919 114.667 29.6774 110.322 29.6774Z" fill="#14161B"/>
<path d="M63.8183 25.4029L66.7014 16.8525C67.5374 14.3799 67.1612 13.6677 64.4872 13.6677V12.8292H72.3423V13.6677C69.7101 13.6677 69.0834 14.2963 68.0388 17.3558L63.275 31.6892H62.7321L58.4698 18.5709L54.1248 31.6892H53.5815L48.9437 17.3558C47.941 14.2963 47.2724 13.6677 44.8489 13.6677V12.8292H54.1248V13.6677C51.6593 13.6677 50.9905 14.2543 51.8683 16.8525L54.6677 25.4029L58.8878 12.8292H59.6819L63.8183 25.4029Z" fill="#14161B"/>
<path d="M78.0238 31.5212C73.4279 31.5212 69.6673 28.1267 69.6673 23.977C69.6673 19.87 73.4282 16.4749 78.0238 16.4749C82.62 16.4749 86.3803 19.87 86.3803 23.977C86.3803 28.1267 82.62 31.5212 78.0238 31.5212ZM78.0238 17.7751C74.1801 17.7751 72.8427 21.2532 72.8427 23.9774C72.8427 26.744 74.1801 30.1804 78.0238 30.1804C81.91 30.1804 83.247 26.744 83.247 23.9774C83.247 21.2532 81.91 17.7751 78.0238 17.7751Z" fill="#14161B"/>
<path d="M129.082 30.1384V30.9766H119.514V30.1384C122.314 30.1384 122.815 29.4262 122.815 25.2345V18.5293C122.815 14.3376 122.314 13.6674 119.514 13.6674V12.8289H128.163C132.466 12.8289 134.849 15.0502 134.849 18.0264C134.849 20.9183 132.466 23.1812 128.163 23.1812H125.781V25.2342C125.781 29.4262 126.282 30.1384 129.082 30.1384ZM128.163 14.3376H125.781V21.6305H128.163C130.503 21.6305 131.589 19.9961 131.589 18.0264C131.589 16.0147 130.503 14.3376 128.163 14.3376Z" fill="#14161B"/>
<path d="M163.552 27.0371L163.343 27.7914C162.967 29.1745 162.507 29.6774 159.541 29.6774H158.956C156.783 29.6774 156.407 29.1745 156.407 26.199V24.2713C159.666 24.2713 159.917 24.5642 159.917 26.7439H160.711V20.4989H159.917C159.917 22.6782 159.666 22.9715 156.407 22.9715V18.2779H158.705C161.672 18.2779 162.131 18.7808 162.507 20.1639L162.717 20.9598H163.385L163.093 17.0204H150.808V17.8163C153.148 17.8163 153.524 18.3192 153.524 21.2951V26.6599C153.524 29.382 153.205 30.0677 151.36 30.1655C149.607 29.8969 148.403 28.9377 146.756 27.1208L144.834 25.0255C147.424 24.5638 148.803 22.9298 148.803 21.0854C148.803 18.7808 146.84 17.0204 143.163 17.0204H135.809V17.8163C138.148 17.8163 138.525 18.3192 138.525 21.2951V26.6599C138.525 29.6354 138.149 30.1803 135.809 30.1803V30.9765H144.124V30.1803C141.784 30.1803 141.408 29.6354 141.408 26.6599V25.1515H142.118L146.756 30.9765H163.929L164.18 27.0375H163.552V27.0371ZM141.408 23.8513V18.2779H143.12C145.001 18.2779 145.837 19.577 145.837 21.0858C145.837 22.5529 145.001 23.8516 143.12 23.8516H141.408V23.8513Z" fill="#14161B"/>
<path d="M172.035 31.5211C170.363 31.5211 168.901 30.6413 168.274 30.096C168.065 30.306 167.689 30.9346 167.606 31.5211H166.812V25.7381H167.647C167.982 28.504 169.903 30.1384 172.369 30.1384C173.706 30.1384 174.792 29.3842 174.792 28.1271C174.792 27.0376 173.831 26.199 172.118 25.4028L169.737 24.2714C168.065 23.4744 166.812 22.0913 166.812 20.2477C166.812 18.236 168.692 16.5179 171.283 16.5179C172.662 16.5179 173.831 17.0209 174.542 17.6074C174.75 17.4398 174.959 16.9785 175.085 16.4752H175.879V21.4211H175.001C174.709 19.4511 173.622 17.8167 171.408 17.8167C170.238 17.8167 169.151 18.4873 169.151 19.5354C169.151 20.6249 170.029 21.2115 172.035 22.1337L174.332 23.2652C176.338 24.229 177.132 25.7805 177.132 27.0376C177.132 29.6775 174.834 31.5211 172.035 31.5211Z" fill="#14161B"/>
<path d="M184.903 31.5211C183.231 31.5211 181.769 30.6413 181.142 30.096C180.933 30.306 180.558 30.9346 180.474 31.5211H179.68V25.7381H180.516C180.85 28.504 182.772 30.1384 185.237 30.1384C186.574 30.1384 187.661 29.3842 187.661 28.1271C187.661 27.0376 186.7 26.199 184.986 25.4028L182.605 24.2714C180.933 23.4744 179.68 22.0913 179.68 20.2477C179.68 18.236 181.56 16.5179 184.151 16.5179C185.53 16.5179 186.699 17.0209 187.41 17.6074C187.619 17.4398 187.828 16.9785 187.953 16.4752H188.747V21.4211H187.87C187.577 19.4511 186.491 17.8167 184.276 17.8167C183.106 17.8167 182.02 18.4873 182.02 19.5354C182.02 20.6249 182.897 21.2115 184.903 22.1337L187.201 23.2652C189.207 24.229 190 25.7805 190 27.0376C190 29.6775 187.702 31.5211 184.903 31.5211Z" fill="#14161B"/>
<path d="M3.06441 21.6202C3.06441 28.9617 7.31795 35.3063 13.4859 38.3129L4.66534 14.0718C3.63933 16.3786 3.06441 18.9313 3.06441 21.6202Z" fill="#14161B"/>
<path d="M34.0379 20.6844C34.0379 18.3921 33.217 16.8047 32.513 15.5691C31.5756 14.0413 30.6971 12.7474 30.6971 11.2196C30.6971 9.51463 31.9862 7.92753 33.8021 7.92753C33.8841 7.92753 33.9619 7.93776 34.0418 7.94235C30.7519 4.91919 26.3689 3.07339 21.5549 3.07339C15.0949 3.07339 9.41138 6.39795 6.10503 11.4335C6.53886 11.4465 6.94771 11.4557 7.29499 11.4557C9.22912 11.4557 12.223 11.2203 12.223 11.2203C13.2198 11.1614 13.3374 12.6299 12.3416 12.7481C12.3416 12.7481 11.3399 12.8664 10.2252 12.9249L16.959 33.0152L21.0056 20.8418L18.1247 12.9242C17.1289 12.8657 16.1856 12.7474 16.1856 12.7474C15.1892 12.6888 15.306 11.1607 16.3024 11.2196C16.3024 11.2196 19.3561 11.455 21.1731 11.455C23.1069 11.455 26.1012 11.2196 26.1012 11.2196C27.0987 11.1607 27.2158 12.6292 26.2197 12.7474C26.2197 12.7474 25.2159 12.8657 24.1033 12.9242L30.7857 32.8624L32.6301 26.6802C33.4295 24.1148 34.0379 22.2722 34.0379 20.6844Z" fill="#14161B"/>
<path d="M21.8793 23.2425L16.3313 39.4131C17.9878 39.9016 19.7397 40.1688 21.5549 40.1688C23.7082 40.1688 25.7733 39.7954 27.6954 39.1174C27.6458 39.038 27.6008 38.9536 27.5638 38.8619L21.8793 23.2425Z" fill="#14161B"/>
<path d="M37.7803 12.7216C37.8598 13.3124 37.9048 13.9466 37.9048 14.6288C37.9048 16.511 37.5544 18.6267 36.4988 21.2723L30.8505 37.6526C36.3479 34.4371 40.0455 28.4631 40.0455 21.6206C40.0459 18.3959 39.2246 15.3636 37.7803 12.7216Z" fill="#14161B"/>
<path d="M21.5552 0C9.66996 0 0 9.69874 0 21.6202C0 33.5431 9.66996 43.2415 21.5552 43.2415C33.4401 43.2415 43.1114 33.5431 43.1114 21.6202C43.1111 9.69874 33.4401 0 21.5552 0ZM21.5552 42.2504C10.215 42.2504 0.988354 32.9957 0.988354 21.6202C0.988354 10.2454 10.2146 0.991367 21.5552 0.991367C32.895 0.991367 42.121 10.2454 42.121 21.6202C42.121 32.9957 32.895 42.2504 21.5552 42.2504Z" fill="#14161B"/>
</svg>
