<svg width="182" height="33" viewBox="0 0 182 33" fill="none" xmlns="http://www.w3.org/2000/svg">
<path fill-rule="evenodd" clip-rule="evenodd" d="M5.68573 0.00106607C3.46617 0.00106607 1.33782 1.29442 0.48648 3.09973C0.091215 3.88113 0 4.74337 0 5.57867C0.0152025 8.35399 0.0152025 11.136 0.0152025 13.9215C0.0152025 16.7069 0.0152025 19.4957 0.0304051 22.2845C0.0608101 24.8443 2.58442 27.1346 5.47289 27.2154C8.92655 27.227 12.3802 27.2237 15.8315 27.2204C20.4319 27.216 25.0282 27.2116 29.6144 27.2424C31.8218 28.2932 33.9964 29.3732 36.1709 30.4531C37.6206 31.1731 39.0704 31.8931 40.5298 32.6044C40.1194 31.7018 39.7089 30.8059 39.2985 29.91C38.888 29.0141 38.4775 28.1181 38.067 27.2154C40.1042 27.2154 42.1413 27.2184 44.1784 27.2214C48.2527 27.2274 52.3269 27.2334 56.4012 27.2154C59.2897 27.1615 61.8133 24.8443 61.8437 22.2845V5.20144C61.8741 3.74641 61.1748 2.29139 59.9586 1.32137C58.8944 0.459136 57.435 -0.0258788 55.9755 0.00106607H5.68573ZM28.2779 3.57922C27.5818 2.5674 25.8266 2.29393 24.9188 3.16902C24.4235 3.71605 24.1284 4.37613 23.8286 5.04647C23.7987 5.11337 23.7688 5.18037 23.7386 5.24737C22.2557 8.72039 21.6807 12.4669 21.2268 16.1587C20.1676 13.7248 19.4413 11.1542 18.8966 8.58366C18.7756 8.00938 18.594 7.38041 18.1401 6.94286C17.5651 6.39593 16.5967 6.36858 15.9309 6.75143C15.4468 7.0249 15.1139 7.48979 14.8415 7.95468C13.0258 11.0995 11.2101 14.2171 9.39434 17.3346C8.3049 13.424 7.54835 9.45875 6.88259 5.46614C6.7918 4.94656 6.67075 4.37227 6.21682 4.01677C5.58132 3.49718 4.58267 3.55188 3.82612 3.798C2.88799 4.12616 2.49459 5.16533 2.70642 6.01308C2.74986 6.25113 2.79323 6.48923 2.83661 6.72738C3.73011 11.6325 4.62667 16.5545 6.1563 21.3272C6.24643 21.5541 6.32835 21.7897 6.41108 22.0276C6.71722 22.9079 7.03452 23.8204 7.82071 24.4447C8.48648 24.9096 9.36408 24.4994 9.87853 24.0345C11.089 22.9406 11.9061 21.546 12.6626 20.1786C13.7521 18.1823 14.8718 16.1587 15.9915 14.1624C17.1112 17.5807 18.6545 20.999 21.3781 23.6517C21.9834 24.2533 22.861 24.8276 23.7991 24.6361C24.7977 24.4174 25.2517 23.4055 25.1911 22.5578C25.0096 19.2488 25.4938 15.9399 26.0687 12.6857C26.5529 10.1971 27.0977 7.65387 28.3687 5.35675C28.6713 4.80982 28.641 4.09881 28.2779 3.57922ZM40.5945 6.88816C39.263 5.54818 37.1447 4.94656 35.1776 5.16533C33.9974 5.30206 32.8777 5.76695 31.9698 6.50531C28.8529 9.10324 27.6121 13.2599 28.3384 17.0064C28.7015 18.6472 29.5791 20.288 31.1528 21.2725C33.1198 22.4484 35.8434 22.5851 37.871 21.4639C39.263 20.7256 40.2314 19.495 40.9879 18.237C42.3195 16.0219 42.8339 13.3967 42.5011 10.9081C42.2892 9.45875 41.684 8.00938 40.5945 6.88816ZM33.5132 10.7714C34.0277 10.0604 34.6329 9.26732 35.571 8.99386C36.2368 8.80243 37.0236 9.0212 37.417 9.51344C38.3854 10.8261 38.5367 12.4942 38.2341 13.9983C37.9315 15.3383 37.3565 16.6783 36.2065 17.5807C35.6921 17.9909 35.0263 18.3738 34.3 18.2644C33.604 18.155 33.1803 17.5807 32.908 17.0611C31.8791 15.0648 32.2422 12.631 33.5132 10.7714ZM56.2098 6.77878C54.8782 5.49349 52.7902 4.94656 50.8836 5.16533C49.5824 5.30206 48.3416 5.90368 47.3127 6.72408C44.1655 9.67752 43.0155 14.2718 44.3773 18.1823C44.8918 19.4676 45.7694 20.6709 47.0706 21.3819C49.0074 22.421 51.6099 22.5304 53.5467 21.4639C54.9993 20.6982 55.9979 19.4403 56.7545 18.155C58.0255 16.0219 58.5097 13.506 58.2373 11.0995C58.0558 9.51344 57.4202 7.95468 56.2098 6.77878ZM49.1571 10.9758C49.6945 10.193 50.2964 9.31627 51.3073 8.99386C51.9731 8.80243 52.7599 9.0212 53.123 9.48609C54.0006 10.6347 54.2427 12.084 54.0612 13.424C53.8796 14.8734 53.3651 16.3501 52.1849 17.3893C51.6402 17.8542 50.9744 18.2917 50.2179 18.2644C49.5219 18.237 49.0074 17.7174 48.735 17.1705C47.6759 15.2289 47.9785 12.8497 49.1284 11.0175L49.1571 10.9758Z" fill="#14161B"/>
<path fill-rule="evenodd" clip-rule="evenodd" d="M71.9136 5.53772C73.5838 5.21847 75.3452 5.24508 77.0155 5.59093C77.0155 6.78809 77.0155 7.98526 77.0155 9.18243C75.6489 8.88979 74.1001 8.62375 72.7943 9.18243C71.2151 9.87412 70.3344 11.4437 70.3344 12.9335C70.2433 14.4233 70.8203 16.0994 72.3387 16.9507C73.7357 17.7488 75.5274 17.5892 77.0459 17.2167C77.0459 18.4139 77.0459 19.6111 77.0459 20.8082C75.0112 21.3137 72.7943 21.2605 70.8203 20.622C68.4515 19.8505 66.5687 18.0414 65.8398 15.9132C65.2932 14.2903 65.2325 12.5611 65.6576 10.9117C66.3561 8.2779 68.9071 6.123 71.9136 5.53772ZM84.2432 5.35149C86.3083 5.13866 88.5556 5.4313 90.2259 6.57526C91.8354 7.66601 92.625 9.44846 92.9287 11.1511C93.202 13.04 93.1413 15.0086 92.4731 16.8177C91.8961 18.3607 90.7118 19.7973 89.0111 20.5156C87.2801 21.2339 85.2454 21.2871 83.3929 20.9146C81.6923 20.5688 80.1738 19.5845 79.3235 18.2277C78.1391 16.4186 77.9265 14.2637 78.0177 12.2152C78.1088 10.4594 78.625 8.62374 79.9613 7.26696C81.0545 6.17621 82.6337 5.51111 84.2432 5.35149ZM84.881 8.78337C84.0003 8.9696 83.484 9.7411 83.2714 10.4594C82.8463 11.896 82.907 13.3858 83.0285 14.849C83.15 15.6471 83.2411 16.4984 83.8788 17.1369C84.7291 17.9882 86.4601 17.8818 87.2194 17.0039C87.7356 16.4452 87.8875 15.7269 87.9786 15.0352C88.1608 13.8115 88.1912 12.5611 87.9786 11.3373C87.8267 10.5924 87.5838 9.82091 86.9764 9.26223C86.4298 8.78337 85.6098 8.62375 84.881 8.78337ZM165.874 5.59093C167.636 5.19187 169.488 5.24508 171.249 5.56432C171.28 6.76149 171.249 7.95866 171.28 9.18243C169.944 8.88979 168.456 8.62374 167.15 9.12922C165.631 9.7411 164.72 11.1511 164.599 12.5611C164.417 14.1573 164.902 15.9664 166.512 16.8975C167.909 17.7488 169.731 17.5892 171.28 17.1901C171.249 18.3873 171.31 19.6111 171.249 20.8082C169.093 21.2871 166.725 21.2339 164.69 20.4624C162.443 19.6111 160.681 17.802 160.043 15.7269C159.558 14.1307 159.497 12.4281 159.952 10.8052C160.62 8.3045 163.02 6.25602 165.874 5.59093ZM95.6315 5.69734C97.5751 5.69734 99.549 5.69734 101.493 5.69734C102.191 8.46412 102.859 11.2575 103.467 14.0509C104.013 11.2309 104.772 8.46412 105.532 5.69734C107.536 5.69734 109.54 5.69734 111.545 5.69734C112.334 10.7254 113.093 15.7535 113.853 20.755C112.334 20.755 110.785 20.755 109.267 20.755C108.842 17.3232 108.477 13.8647 108.022 10.4328C107.08 13.8647 106.109 17.3232 105.167 20.755C104.135 20.755 103.072 20.755 102.039 20.755C101.037 17.3232 100.065 13.8647 99.0328 10.4062C98.638 13.8381 98.2432 17.2965 97.8484 20.755C96.3907 20.755 94.933 20.755 93.4449 20.755C94.1738 15.7535 94.9026 10.7254 95.6315 5.69734ZM116.647 5.69734C118.59 5.69734 120.564 5.69734 122.508 5.69734C123.206 8.46412 123.874 11.2575 124.482 14.0509C125.059 11.2575 125.788 8.46412 126.547 5.69734H132.529C133.319 10.7254 134.078 15.7535 134.837 20.755C133.319 20.755 131.77 20.755 130.252 20.755C129.827 17.3232 129.432 13.8647 129.007 10.4328C128.065 13.8647 127.124 17.3232 126.152 20.755C125.119 20.755 124.057 20.755 123.024 20.755C122.022 17.2965 121.02 13.8647 120.018 10.4062C119.623 13.8647 119.228 17.2965 118.833 20.755C117.375 20.755 115.918 20.755 114.43 20.755C115.189 15.7535 115.918 10.7254 116.647 5.69734ZM136.174 5.75054C139.302 5.69734 142.46 5.75055 145.588 5.72395C145.588 6.78809 145.588 7.85223 145.588 8.94299C144.009 8.96959 142.43 8.94299 140.85 8.94299C140.85 9.87411 140.85 10.7786 140.85 11.7098C142.217 11.7098 143.584 11.7098 144.95 11.7098C144.95 12.7473 144.95 13.7849 144.95 14.8224C143.584 14.8224 142.217 14.8224 140.85 14.8224C140.85 15.7269 140.85 16.6581 140.85 17.5892C142.43 17.5892 144.039 17.5892 145.618 17.5892C145.618 18.6533 145.618 19.7175 145.618 20.8082C142.49 20.8082 139.332 20.8082 136.204 20.8082C136.174 15.7801 136.234 10.7786 136.174 5.75054ZM146.924 5.69734C148.898 5.69734 150.842 5.67074 152.816 5.69734C154.668 5.75055 156.642 6.1496 158.009 7.29356C159.254 8.3045 159.679 9.98053 159.193 11.3905C158.798 12.5345 157.827 13.4656 156.612 13.9711C157.827 16.2324 159.072 18.4937 160.317 20.755C158.677 20.755 157.037 20.755 155.427 20.755C154.152 18.4405 152.907 16.126 151.601 13.8381C151.571 16.1526 151.601 18.4671 151.601 20.755C150.052 20.755 148.503 20.755 146.955 20.755C146.924 15.7535 146.924 10.7254 146.924 5.69734ZM151.571 8.59714C151.571 9.79431 151.571 10.9915 151.571 12.1886C152.421 12.1354 153.332 12.1088 154.03 11.6566C154.85 11.1245 154.759 10.0337 154.243 9.34204C153.605 8.67695 152.482 8.67695 151.571 8.59714ZM172.586 5.72395C175.714 5.72395 178.842 5.72395 181.97 5.72395C181.97 6.78809 181.97 7.87884 181.97 8.94299C180.39 8.94299 178.781 8.94299 177.202 8.94299C177.202 9.87411 177.202 10.7786 177.202 11.7098C178.568 11.7098 179.935 11.7098 181.301 11.7098C181.301 12.7473 181.301 13.7849 181.301 14.8224H177.202C177.202 15.7535 177.202 16.6581 177.202 17.5892C178.811 17.5892 180.39 17.5892 182 17.5892C182 18.6533 182 19.7175 182 20.8082C178.872 20.8082 175.714 20.8082 172.586 20.8082C172.555 15.7535 172.586 10.7254 172.586 5.72395Z" fill="#14161B"/>
</svg>
